HIERARCHY
ROOT root
{
	OFFSET 0.000000 0.000000 0.000000
	CHANNELS 6 Xposition Yposition Zposition Zrotation Yrotation Xrotation
	JOINT lhip
	{
		OFFSET 0.058581 -0.082280 -0.017664
		CHANNELS 3 Zrotation Yrotation Xrotation
		JOINT lknee
		{
			OFFSET 0.043451 -0.386469 0.008037
			CHANNELS 3 Zrotation Yrotation Xrotation
			JOINT lankle
			{
				OFFSET -0.014790 -0.426874 -0.037428
				CHANNELS 3 Zrotation Yrotation Xrotation
				JOINT ltoe
				{
					OFFSET 0.041054 -0.060286 0.122042
					CHANNELS 3 Zrotation Yrotation Xrotation
					End Site
					{
						OFFSET 0.000000 0.000000 0.000000
					}
				}
			}
		}
	}
	JOINT rhip
	{
		OFFSET -0.060310 -0.090513 -0.013543
		CHANNELS 3 Zrotation Yrotation Xrotation
		JOINT rknee
		{
			OFFSET -0.043257 -0.383688 -0.004843
			CHANNELS 3 Zrotation Yrotation Xrotation
			JOINT rankle
			{
				OFFSET 0.019056 -0.420046 -0.034562
				CHANNELS 3 Zrotation Yrotation Xrotation
				JOINT rtoe
				{
					OFFSET -0.034840 -0.062106 0.130323
					CHANNELS 3 Zrotation Yrotation Xrotation
					End Site
					{
						OFFSET 0.000000 0.000000 0.000000
					}
				}
			}
		}
	}
	JOINT lowerback
	{
		OFFSET 0.004439 0.124404 -0.038385
		CHANNELS 3 Zrotation Yrotation Xrotation
		JOINT upperback
		{
			OFFSET 0.004488 0.137956 0.026820
			CHANNELS 3 Zrotation Yrotation Xrotation
			JOINT chest
			{
				OFFSET -0.002265 0.056032 0.002855
				CHANNELS 3 Zrotation Yrotation Xrotation
				JOINT lowerneck
				{
					OFFSET -0.013390 0.211636 -0.033468
					CHANNELS 3 Zrotation Yrotation Xrotation
					JOINT upperneck
					{
						OFFSET 0.010113 0.088937 0.050410
						CHANNELS 3 Zrotation Yrotation Xrotation
						End Site
						{
							OFFSET 0.000000 0.000000 0.000000
						}
					}
				}
				JOINT lclavicle
				{
					OFFSET 0.071702 0.114000 -0.018898
					CHANNELS 3 Zrotation Yrotation Xrotation
					JOINT lshoulder
					{
						OFFSET 0.122921 0.045205 -0.019046
						CHANNELS 3 Zrotation Yrotation Xrotation
						JOINT lelbow
						{
							OFFSET 0.255332 -0.015649 -0.022946
							CHANNELS 3 Zrotation Yrotation Xrotation
							JOINT lwrist
							{
								OFFSET 0.265709 0.012698 -0.007375
								CHANNELS 3 Zrotation Yrotation Xrotation
								End Site
								{
									OFFSET 0.000000 0.000000 0.000000
								}
							}
						}
					}
				}
				JOINT rclavicle
				{
					OFFSET -0.082954 0.112472 -0.023707
					CHANNELS 3 Zrotation Yrotation Xrotation
					JOINT rshoulder
					{
						OFFSET -0.113228 0.046853 -0.008472
						CHANNELS 3 Zrotation Yrotation Xrotation
						JOINT relbow
						{
							OFFSET -0.260127 -0.014369 -0.031269
							CHANNELS 3 Zrotation Yrotation Xrotation
							JOINT rwrist
							{
								OFFSET -0.269108 0.006794 -0.006027
								CHANNELS 3 Zrotation Yrotation Xrotation
								End Site
								{
									OFFSET 0.000000 0.000000 0.000000
								}
							}
						}
					}
				}
			}
		}
	}
}
MOTION
Frames: 17
Frame Time: 0.033333
-0.260003 -0.333425 0.999284 128.968401 -0.707427 85.295343 -0.649581 -7.162478 -9.558267 -10.417443 -6.487184 45.012055 -2.525251 4.485207 -14.327004 0.000000 -0.000000 0.000000 -2.603914 -2.555723 -3.464623 0.612741 -3.525090 21.384087 0.950019 -8.303462 -17.527903 0.000000 -0.000000 0.000000 2.322703 4.029346 17.745432 1.381230 1.579609 0.709180 -1.454220 1.440703 3.878385 3.242413 -1.332131 3.502949 -4.747798 -6.366433 22.055904 -34.006079 9.702670 0.330061 -57.058021 0.096880 11.135944 15.242441 -46.960592 -5.542400 11.893320 -3.640464 -18.043748 33.017258 2.512563 2.279995 47.087399 9.065021 13.191938 -21.584141 37.044836 -15.347327 -5.277454 4.999018 -6.284542 
-0.269772 -0.340847 0.999202 127.687096 -0.363883 85.027499 -0.928881 -7.087629 -6.337637 -11.344744 -9.123838 45.848954 -2.850472 3.821996 -14.004477 0.000000 -0.000000 0.000000 -1.884896 -1.445293 -4.633799 0.290698 -2.483378 22.282319 0.509414 -8.508820 -17.093870 0.000000 -0.000000 0.000000 2.285201 3.256972 17.225782 1.748545 1.591168 1.243490 -1.398189 1.187736 3.867102 3.629587 -1.303247 3.562275 -5.142224 -6.430969 21.890327 -33.979236 9.856769 0.475253 -56.665970 0.560207 11.240430 13.931954 -46.710219 -4.186071 12.223908 -3.818908 -17.469611 33.126391 2.521486 1.980018 46.843724 9.082638 13.286060 -21.907330 37.276618 -15.504159 -5.604714 5.127019 -6.327987 
-0.280562 -0.347747 0.997807 126.585581 -0.001979 84.856982 -1.085610 -6.885337 -2.902221 -11.599769 -11.827826 45.402776 -3.679326 3.821571 -13.521972 0.000000 -0.000000 0.000000 -1.344827 -0.542617 -5.887021 0.236642 -2.177836 23.147511 0.328272 -8.761569 -16.776683 0.000000 -0.000000 0.000000 2.275717 2.382749 16.540480 2.041515 1.572224 1.793755 -1.370729 0.898851 3.889293 4.002107 -1.281761 3.668238 -5.390672 -6.449373 21.767395 -33.764563 10.005874 0.497021 -56.592594 0.791434 11.332958 13.256846 -46.363282 -3.151561 11.639098 -3.700052 -17.122036 33.199955 2.456006 1.690452 46.843846 9.246241 13.406529 -22.219713 37.353583 -15.483566 -5.524201 4.793827 -6.270091 
-0.293004 -0.354249 0.995660 125.642180 0.311924 84.938443 -1.096772 -6.494952 0.364645 -11.497001 -14.649173 43.506532 -3.298902 4.148689 -13.304202 0.000000 -0.000000 0.000000 -1.176840 0.251142 -7.497148 0.562013 -2.151530 24.209704 0.439528 -8.975636 -16.119835 0.000000 -0.000000 0.000000 2.262199 1.432167 15.602841 2.276447 1.627553 2.194919 -1.405895 0.673028 3.921119 4.383050 -1.226528 3.852437 -5.596709 -6.572278 21.907193 -33.511431 10.178152 0.610738 -56.506752 0.626589 11.509812 12.669897 -45.956975 -2.466102 11.614469 -3.699335 -16.737550 33.301915 2.250289 1.417054 46.908610 9.311865 13.490649 -22.491772 37.424979 -15.964658 -5.413833 4.988765 -6.980533 
-0.307012 -0.360266 0.992796 124.827852 0.830005 85.274056 -0.728111 -5.918811 3.609095 -10.767621 -17.755052 39.773276 -3.141888 4.851380 -13.428351 0.000000 -0.000000 0.000000 -0.841970 1.019820 -9.597306 0.639391 -1.870343 25.341465 0.408207 -9.007132 -15.976356 0.000000 -0.000000 0.000000 2.373385 0.238014 14.941494 2.495290 1.782320 1.933961 -1.321061 0.457652 3.799574 4.692694 -1.284845 4.276916 -5.827829 -6.597197 22.197704 -33.517324 10.560339 0.560046 -56.300366 0.588989 11.613459 12.412689 -45.656713 -2.340967 11.869973 -3.681560 -16.392967 33.405280 1.949910 1.296181 46.846474 9.199493 13.649712 -22.484062 37.478444 -16.101884 -5.918827 4.988214 -6.818262 
-0.323428 -0.366701 0.988839 123.747978 1.431675 85.704527 -0.013824 -5.467672 6.705346 -9.563949 -20.365823 34.418337 -2.924344 5.253591 -14.105967 0.000000 -0.000000 0.000000 -0.431349 1.779110 -12.055676 0.732736 -1.586482 26.682879 0.505265 -9.058637 -15.618111 0.000000 -0.000000 0.000000 2.467562 -0.757925 13.980335 2.788284 2.013156 2.264845 -1.185087 0.302691 3.700468 5.019432 -1.263705 4.492444 -5.981277 -6.763694 22.029833 -33.460321 10.531072 0.656577 -56.468296 0.147704 11.786812 12.987551 -45.377231 -3.024860 11.935129 -3.469356 -15.866558 33.408142 2.052368 1.399466 46.732774 9.267703 13.779982 -22.558081 37.369153 -16.377302 -5.844790 5.058548 -6.956794 
-0.342018 -0.372406 0.983939 122.852588 1.887902 85.897015 0.425103 -4.992408 9.992456 -7.905743 -23.163357 27.566540 -2.518544 5.327292 -15.822725 0.000000 -0.000000 0.000000 -0.603118 2.857697 -14.090070 1.064025 -2.288565 27.558998 1.280811 -9.110625 -15.483652 0.000000 -0.000000 0.000000 2.434173 -1.956862 13.639204 3.021748 2.320386 2.404614 -0.858284 0.184714 3.621553 5.302989 -0.962547 4.359403 -6.370567 -7.149789 21.559421 -33.564739 10.346222 0.697844 -56.458204 -0.446080 12.082097 13.254467 -45.389550 -3.594102 12.143507 -3.503727 -15.887081 33.046241 1.971228 1.193365 46.834455 9.485048 13.850576 -22.547342 37.331081 -16.451690 -5.590888 5.112145 -7.087280 
-0.363021 -0.378372 0.978087 121.770496 2.310003 86.102566 1.001370 -4.182987 12.442281 -6.712022 -24.768002 21.332020 0.391737 6.143031 -19.649510 0.000000 -0.000000 0.000000 -0.751649 3.596942 -16.256029 1.200212 -2.426213 28.324949 2.105445 -9.062247 -15.173874 0.000000 -0.000000 0.000000 2.235354 -3.024522 13.717004 3.180243 2.573102 2.131521 -0.525352 -0.076636 3.688933 5.719461 -1.084627 3.794634 -6.608118 -7.123119 21.609227 -33.313050 10.098727 0.657928 -56.663162 -1.022472 12.259537 13.348315 -45.610449 -3.916250 12.404938 -3.539278 -15.734539 32.919133 2.355524 1.083018 46.709483 9.736828 14.059860 -22.523589 37.317825 -16.889393 -5.579406 5.239012 -6.486789 
-0.385651 -0.384699 0.973097 120.439983 2.875944 86.102780 1.607513 -2.757233 13.798353 -5.194750 -23.205451 16.025708 1.979265 7.553375 -22.651264 0.000000 -0.000000 0.000000 -0.785396 4.344289 -18.286443 1.468774 -2.665362 28.777513 2.899868 -8.945738 -14.314577 0.000000 -0.000000 0.000000 2.029266 -3.990238 14.577860 3.444353 2.736103 1.688150 -0.158879 -0.152571 3.563162 5.934961 -1.032912 3.192502 -6.724517 -7.141820 21.788461 -33.492519 9.705627 0.459433 -56.455186 -1.784349 12.345082 13.325446 -45.548523 -4.305401 12.534875 -4.019876 -15.408433 33.099962 2.628923 0.678412 46.491747 10.303504 14.322491 -22.452238 36.929623 -17.409667 -5.680892 5.694415 -5.887579 
-0.409533 -0.390872 0.970180 118.710512 3.396363 85.963088 1.628890 -1.614833 14.253355 -4.179229 -21.501119 12.514889 3.097763 8.853345 -24.142628 0.000000 -0.000000 0.000000 -0.788864 4.911156 -19.860675 1.661147 -2.740672 28.309231 3.740122 -8.347590 -12.461918 0.000000 -0.000000 0.000000 1.796651 -4.609422 15.440517 3.680955 2.696789 1.585720 0.249061 -0.314797 3.544929 5.991329 -0.901215 2.719731 -6.730868 -6.783686 21.862723 -33.532228 8.936713 0.297548 -56.672929 -2.673841 12.441882 14.138516 -44.829609 -5.527986 12.618272 -4.026059 -15.358211 33.459779 3.182877 0.290507 46.306263 11.296277 14.617335 -22.549747 36.172735 -17.813556 -5.266575 5.822376 -5.256058 
-0.433734 -0.397256 0.969156 116.952451 3.794029 86.223463 1.616407 -1.117683 13.356943 -3.718401 -20.229391 10.699696 3.923371 9.275358 -24.995284 0.000000 -0.000000 0.000000 -0.811522 5.157427 -21.380482 1.715817 -2.835583 26.824223 4.644324 -7.308778 -9.805006 0.000000 -0.000000 0.000000 1.674683 -4.876355 16.256642 3.794161 2.476535 1.024727 0.477796 -0.436038 3.389393 6.009222 -0.594604 2.428143 -6.431227 -6.669901 21.985394 -33.099106 8.153419 0.539481 -56.934568 -3.463283 12.235553 14.974285 -43.857161 -6.350918 12.797610 -4.448304 -14.389148 33.510033 3.455363 0.393261 46.984720 12.057652 14.623962 -22.948978 35.681285 -18.052176 -5.325475 5.845270 -5.033636 
-0.456293 -0.403300 0.969546 114.831187 3.998193 86.411807 1.642256 -0.689830 12.282298 -3.807532 -18.770011 9.512695 4.448190 9.310112 -25.357957 0.000000 -0.000000 0.000000 -0.781233 5.552765 -22.423782 1.602315 -2.842415 24.989265 5.887800 -6.498174 -8.338758 0.000000 -0.000000 0.000000 1.486155 -4.807768 16.843516 3.843220 2.386437 0.778214 0.602468 -0.555985 3.204952 6.140284 -0.058931 2.181615 -6.194607 -6.624967 21.853569 -32.707825 7.286709 0.810461 -56.576243 -3.965081 12.297656 15.313283 -43.699846 -7.068519 11.660904 -5.089019 -14.285832 33.650080 3.519238 0.557390 47.898047 12.505020 14.759566 -23.740183 35.690248 -19.164618 -4.857291 5.878544 -5.037070 
-0.475873 -0.408492 0.971245 112.155584 3.800232 86.122279 0.978779 0.086611 11.984598 -3.582212 -17.270783 8.211908 4.659508 9.940426 -24.712791 0.000000 -0.000000 0.000000 -0.686881 5.917397 -22.541441 1.601027 -2.147419 24.183962 7.522183 -4.961038 -10.978285 0.000000 -0.000000 0.000000 1.083151 -4.461372 17.477236 3.610027 2.363185 0.668325 0.594096 -0.292357 3.163425 5.978658 0.458040 2.107368 -5.560867 -7.157340 21.159741 -32.312096 6.415757 0.791405 -55.977186 -4.176786 12.295118 15.457916 -43.536755 -8.172084 12.815292 -4.982087 -14.100806 33.746382 3.858851 0.945427 48.528963 12.105414 14.880807 -23.841078 36.347147 -19.135080 -5.254819 5.829504 -5.229411 
-0.493635 -0.413599 0.974325 109.669214 3.715523 85.922519 0.365098 0.515089 11.038532 -3.393649 -15.711397 8.035849 4.503770 10.544045 -23.551936 0.000000 -0.000000 0.000000 -0.059770 6.506162 -22.563760 1.475791 -1.926355 25.211150 6.298050 -4.830717 -15.861973 0.000000 -0.000000 0.000000 1.036973 -4.411422 17.908849 3.333555 2.501697 0.494771 0.391088 -0.059550 3.180479 5.902866 1.192503 1.874076 -5.617145 -7.231806 21.300301 -32.194978 5.911410 0.402081 -55.351091 -4.265804 12.170574 16.128509 -43.365201 -9.348392 12.817152 -4.903654 -13.927904 33.874241 4.179870 1.332677 49.257423 11.641205 15.219298 -23.755321 36.444973 -18.626491 -5.264753 5.954051 -5.121304 
-0.509513 -0.418007 0.978137 107.196614 3.539571 85.774257 -0.471342 0.411805 9.943559 -3.134607 -14.620619 8.420355 4.539552 11.598402 -22.542838 0.000000 -0.000000 0.000000 0.853132 6.425332 -22.493333 0.636079 -3.174877 28.736668 4.790670 -6.525716 -19.078512 0.000000 -0.000000 0.000000 1.094204 -4.391368 18.000583 3.016225 2.652379 0.061682 0.187397 0.021584 3.354624 5.432435 1.627244 2.101526 -5.544976 -6.739952 21.403985 -32.117786 5.595730 0.235731 -55.181046 -4.355860 11.643540 17.362929 -42.784374 -10.699757 12.821241 -4.209345 -13.935442 33.665547 4.574088 1.688492 50.134009 10.923618 15.532597 -23.184258 36.202608 -17.162083 -4.803492 5.811952 -5.145879 
-0.523182 -0.421730 0.980796 105.245039 3.290718 85.395010 -1.137206 0.510729 9.618712 -2.770767 -13.427752 8.033989 4.726908 12.227791 -21.623080 0.000000 -0.000000 0.000000 1.393884 6.732788 -21.495092 -0.366053 -5.289503 32.997333 3.231115 -8.764484 -20.987252 0.000000 -0.000000 0.000000 1.056901 -4.603226 17.992461 2.805085 2.799559 0.168011 0.078234 0.259448 3.619312 4.925066 1.750525 1.638037 -5.447946 -6.330332 20.988699 -31.970755 5.438477 0.196468 -55.448871 -4.930345 10.917658 18.511192 -42.402964 -12.079582 12.909720 -3.746131 -14.422114 33.336218 4.547330 1.696836 50.982163 10.185345 15.724509 -22.916493 36.254550 -16.264420 -4.360672 5.927544 -5.280223 
-0.536364 -0.425859 0.981613 103.668252 2.902830 85.322710 -1.524330 0.761551 9.092505 -2.813715 -12.272115 7.353079 4.992821 12.564089 -20.731849 0.000000 -0.000000 0.000000 1.740711 6.447417 -20.230349 -0.819092 -6.171061 37.372392 2.437118 -9.815840 -21.998207 0.000000 -0.000000 0.000000 0.850724 -4.635220 17.968064 2.730496 2.589409 0.121968 -0.006182 0.337689 3.465775 4.656925 2.084056 1.181750 -5.437978 -5.760360 20.896117 -31.929752 5.173529 0.249818 -55.364957 -4.897612 10.399757 19.586701 -42.761279 -13.762139 13.095456 -3.363355 -15.184409 33.158355 4.598421 1.917354 51.552583 9.195018 15.896114 -22.908392 36.648158 -16.021783 -3.900730 5.743818 -5.390573 
